<svg width="815" height="870" viewBox="0 0 815 870" fill="none" xmlns="http://www.w3.org/2000/svg">
<mask id="mask0" mask-type="alpha" maskUnits="userSpaceOnUse" x="0" y="-554" width="1964" height="1492">
<path d="M1962.43 -185.422C1972.49 2.198 1848.62 163.015 1676.74 211.26C1674.42 212.792 1672.87 213.557 1671.32 214.323C1503.32 258.739 1379.45 410.367 1379.45 591.095C1379.45 592.626 1377.9 594.924 1376.35 597.221C1352.35 789.436 1185.89 938 985.371 938H977.629C777.108 938 610.652 789.436 586.651 597.221C584.329 594.158 583.554 592.626 583.554 591.095C583.554 411.133 459.68 258.739 291.676 214.323C290.128 213.557 288.579 212.792 286.257 211.26C114.381 163.015 -9.49289 2.198 0.571877 -185.422C10.6366 -379.934 168.576 -539.219 365.226 -553.004C595.942 -569.085 787.947 -388.358 787.947 -163.98C787.947 -161.682 787.947 -158.619 787.947 -156.322C798.786 -72.85 835.948 4.49536 893.24 64.2274C941.241 114.004 1020.98 114.004 1068.99 64.2274C1126.28 4.49536 1164.21 -72.85 1174.28 -156.322C1174.28 -158.619 1174.28 -161.682 1174.28 -163.98C1174.28 -388.358 1366.28 -569.085 1597 -553.004C1792.88 -539.219 1951.59 -379.934 1962.43 -185.422Z" fill="#00B8C2"/>
</mask>
<g mask="url(#mask0)">
<mask id="mask1" mask-type="alpha" maskUnits="userSpaceOnUse" x="-15" y="-17" width="1480" height="887">
<path d="M1465 -17H-15V870H1465V-17Z" fill="url(#paint0_linear)"/>
</mask>
<g mask="url(#mask1)">
<!--<path d="M1467.24 -16.5566H-12.7611V870.443H1467.24V-16.5566Z" fill="url(#paint1_linear)"/>-->
<path d="M1467.24 870.443H721.319H-12.7611V-16.5566H1467.24V870.443Z" fill="url(#paint2_linear)"/>
<!--<path d="M1467.24 -16.5566H-12.7611V870.443H1467.24V-16.5566Z" fill="url(#paint3_linear)"/>-->
<g style="mix-blend-mode:multiply">
<path opacity="0.0222222" d="M1082.44 -65.3416C1165.32 17.445 919.639 449.118 682.839 679.738C478.599 877.835 247.719 963.578 164.839 880.792C81.959 798.005 147.079 614.692 382.399 381.115C616.239 146.06 999.559 -148.128 1082.44 -65.3416Z" fill="#E4F1FD"/>
<path opacity="0.0444444" d="M1072.08 -56.4715C1153.48 24.8368 912.24 449.118 678.4 676.782C477.12 871.922 249.2 957.665 167.8 874.878C86.4001 793.57 151.52 611.735 382.4 381.115C613.28 150.495 990.68 -137.78 1072.08 -56.4715Z" fill="#E2EFFC"/>
<path opacity="0.0666667" d="M1061.72 -47.6016C1141.64 33.7067 904.841 450.597 673.961 675.304C475.641 867.487 250.681 951.752 169.281 871.922C89.361 792.092 154.481 611.735 382.401 384.072C610.321 156.408 981.801 -127.432 1061.72 -47.6016Z" fill="#E0EDFA"/>
<path opacity="0.0888889" d="M1051.36 -37.2534C1131.28 42.5766 897.438 450.597 669.519 672.346C474.158 863.051 252.159 945.838 172.239 867.486C92.3185 787.656 157.439 610.256 382.399 385.55C607.359 160.843 971.439 -117.083 1051.36 -37.2534Z" fill="#DEECF8"/>
<path opacity="0.1111" d="M1041 -28.3833C1119.44 49.9684 890.039 450.597 665.079 669.39C472.679 858.617 252.159 941.404 175.199 863.052C96.7593 784.7 161.879 608.778 383.879 387.028C605.879 165.278 962.559 -106.735 1041 -28.3833Z" fill="#DCEAF7"/>
<path opacity="0.1333" d="M1030.64 -19.5132C1107.6 57.3601 882.639 452.075 662.119 666.433C471.199 854.182 253.639 935.49 176.679 858.617C99.7189 781.743 164.839 607.3 383.879 388.507C602.919 171.192 953.679 -96.3865 1030.64 -19.5132Z" fill="#DAE8F5"/>
<path opacity="0.1556" d="M1020.28 -10.6432C1095.76 64.7518 875.239 452.075 657.679 664.955C468.239 848.268 255.119 929.577 179.639 854.182C104.159 778.787 167.799 605.822 383.879 391.464C599.959 175.627 944.799 -86.0382 1020.28 -10.6432Z" fill="#D8E6F3"/>
<path opacity="0.1778" d="M1009.92 -1.77326C1083.92 72.1434 869.32 452.075 653.24 661.998C466.76 843.833 256.6 925.142 182.6 849.747C108.6 775.83 172.24 604.343 385.36 392.942C597 180.062 935.92 -75.6899 1009.92 -1.77326Z" fill="#D6E4F2"/>
<path opacity="0.2" d="M999.559 8.57498C1072.08 81.0133 861.919 453.553 648.799 660.52C465.279 839.398 258.079 919.228 185.559 845.312C113.039 772.873 176.679 602.865 385.359 394.42C594.039 185.975 927.039 -65.3417 999.559 8.57498Z" fill="#D4E2F0"/>
<path opacity="0.2222" d="M989.201 17.4451C1061.72 89.8834 854.521 453.553 645.841 657.563C463.801 834.963 259.561 914.793 187.041 842.355C116.001 769.917 179.641 602.865 385.361 397.377C592.561 190.41 918.161 -54.9933 989.201 17.4451Z" fill="#D2E0EF"/>
<path opacity="0.2444" d="M978.84 26.3151C1049.88 97.2751 847.12 453.553 641.4 654.607C462.32 829.05 261.04 907.402 190 837.92C118.96 766.96 182.6 602.865 385.36 398.855C589.6 196.323 909.28 -44.6449 978.84 26.3151Z" fill="#D0DEED"/>
<!--<path opacity="0.2667" d="M969.959 35.185C1038.04 104.667 839.719 453.553 638.439 651.65C460.839 824.615 262.519 902.967 192.959 833.485C123.399 764.003 187.039 599.908 386.839 400.333C586.639 200.758 900.399 -34.2967 969.959 35.185Z" fill="#CDDDEB"/>-->
<!--<path opacity="0.2889" d="M959.601 44.0552C1027.68 112.058 833.801 453.554 634.001 648.694C459.361 820.18 264.001 897.054 194.441 829.05C126.361 761.047 190.001 599.909 386.841 403.29C583.681 205.193 891.521 -23.9482 959.601 44.0552Z" fill="#CBDBEA"/>-->
<!--<path opacity="0.3111" d="M949.239 54.4035C1015.84 120.928 826.399 455.032 631.039 647.215C457.879 814.267 263.999 891.14 197.399 824.615C130.799 758.09 192.959 598.43 386.839 404.768C580.719 211.107 881.159 -13.5998 949.239 54.4035Z" fill="#C9D9E8"/>-->
<!--<path opacity="0.3333" d="M938.88 63.2735C1004 128.32 819 455.032 626.6 644.259C456.4 809.832 265.48 885.227 200.36 820.18C135.24 755.134 197.4 596.952 388.32 406.247C579.24 215.542 872.28 -3.25151 938.88 63.2735Z" fill="#C7D7E6"/>-->
<!--<path opacity="0.3556" d="M928.52 72.1434C993.639 137.19 811.6 456.51 622.16 641.302C454.92 805.397 266.96 880.792 203.32 815.745C138.2 750.699 201.84 595.474 388.32 407.725C576.28 219.977 863.4 7.09676 928.52 72.1434Z" fill="#C5D5E5"/>-->
<!--<path opacity="0.3778" d="M918.161 81.0135C981.801 144.582 804.201 456.51 617.721 638.345C453.441 799.483 268.441 874.878 204.801 811.31C141.161 747.742 203.321 593.995 388.321 409.203C573.321 225.89 854.521 17.4452 918.161 81.0135Z" fill="#C3D3E3"/>-->
<!--<path opacity="0.4" d="M907.799 89.8835C969.959 151.974 796.799 456.51 613.279 635.389C450.479 795.049 269.919 868.965 207.759 806.875C145.599 744.785 207.759 592.517 389.799 412.16C570.359 230.325 845.639 27.7935 907.799 89.8835Z" fill="#C1D1E1"/>-->
<!--<path opacity="0.4222" d="M897.439 100.232C958.119 160.843 789.399 457.988 610.319 633.91C450.479 790.613 271.399 864.53 210.719 803.919C150.038 741.829 210.718 592.517 389.799 413.638C567.399 234.76 836.759 38.1417 897.439 100.232Z" fill="#BFD0E0"/>-->
<!--<path opacity="0.4444" d="M887.079 109.102C946.279 168.235 783.479 457.988 605.879 630.953C447.519 784.7 272.879 858.617 213.679 798.005C154.479 738.872 215.159 589.56 391.279 415.117C565.919 240.673 827.879 49.9683 887.079 109.102Z" fill="#BDCEDE"/>-->
<path opacity="0.4667" d="M876.72 117.972C934.439 175.627 776.08 457.989 601.44 627.997C446.04 780.265 274.36 852.704 215.16 793.57C157.44 735.915 218.12 588.082 389.8 416.595C562.96 245.108 818.999 60.3168 876.72 117.972Z" fill="#BBCCDC"/>
<path opacity="0.4889" d="M866.359 126.842C924.079 184.497 768.679 457.988 596.999 625.04C444.559 774.352 274.359 846.79 216.639 789.135C158.919 731.48 221.079 588.082 389.799 418.073C559.999 251.022 810.119 70.6651 866.359 126.842Z" fill="#B9CADB"/>
<path opacity="0.5111" d="M855.999 135.712C912.239 191.888 761.279 459.467 594.039 623.562C443.079 771.395 277.319 842.355 221.079 786.178C164.839 730.002 225.519 588.082 392.759 422.508C557.039 255.457 799.759 81.0134 855.999 135.712Z" fill="#B7C8D9"/>
<path opacity="0.5333" d="M845.641 146.06C900.401 200.758 753.881 459.467 589.601 620.605C441.601 765.482 277.321 836.442 222.561 781.744C167.801 727.045 228.481 586.603 391.281 423.987C555.561 259.892 790.881 91.3618 845.641 146.06Z" fill="#B5C6D8"/>
<path opacity="0.5556" d="M835.281 154.93C888.561 208.15 746.481 459.467 585.16 617.648C440.12 761.047 278.8 830.528 225.52 777.308C172.24 724.088 232.92 585.125 392.76 425.465C552.6 265.805 782.001 101.71 835.281 154.93Z" fill="#B3C4D6"/>
<!--<path opacity="0.5778" d="M824.92 163.8C876.72 215.542 739.08 460.945 580.72 616.17C437.16 756.612 278.8 826.093 227 772.873C175.2 721.132 234.4 583.647 391.28 426.943C549.64 270.24 773.12 112.058 824.92 163.8Z" fill="#B1C2D4"/>-->
<!--<path opacity="0.6" d="M814.558 172.67C864.878 222.933 731.678 460.945 577.758 613.214C437.158 752.177 281.758 820.18 231.438 768.439C181.118 718.175 240.318 582.169 394.238 428.422C546.678 274.675 764.238 122.407 814.558 172.67Z" fill="#AFC1D3"/>-->
<!--<path opacity="0.6222" d="M804.2 181.54C854.52 231.803 724.28 460.945 573.32 610.257C435.68 746.263 283.241 814.267 232.921 764.003C182.601 713.74 243.281 580.69 392.76 429.9C543.72 280.588 755.36 132.755 804.2 181.54Z" fill="#ADBFD1"/>-->
<!--<path opacity="0.6444" d="M795.318 191.888C844.158 240.673 718.358 462.423 570.358 608.778C434.198 743.307 284.718 809.832 237.358 761.047C188.518 712.262 247.718 580.69 395.718 434.335C542.238 285.023 746.478 143.103 795.318 191.888Z" fill="#ABBDCF"/>-->
<!--<path opacity="0.6667" d="M784.959 200.758C832.319 248.065 710.959 462.423 565.919 605.822C431.239 737.394 286.199 802.44 238.839 755.133C191.479 707.827 250.679 577.733 395.719 434.335C539.279 290.937 737.599 153.452 784.959 200.758Z" fill="#A9BBCE"/>-->
<!--<path opacity="0.6889" d="M774.601 209.628C820.481 255.457 703.561 462.423 561.481 602.865C429.761 732.958 286.201 798.005 240.321 752.177C194.441 704.87 253.641 577.733 395.721 435.813C536.321 295.372 728.721 163.8 774.601 209.628Z" fill="#A7B9CC"/>-->
<!--<path opacity="0.7111" d="M764.241 218.498C808.641 262.848 697.641 462.423 558.521 599.909C429.761 727.045 289.161 792.092 244.761 746.264C200.361 701.914 259.561 574.777 397.201 437.292C533.361 299.807 719.841 174.148 764.241 218.498Z" fill="#A5B7CA"/>-->
<!--<path opacity="0.7333" d="M753.88 227.368C796.8 270.24 690.24 462.423 554.08 596.952C428.28 721.132 290.64 786.178 246.24 741.828C203.32 698.957 261.04 573.298 395.72 438.77C530.4 305.72 709.48 184.497 753.88 227.368Z" fill="#A3B5C9"/>-->
<!--<path opacity="0.7556" d="M743.518 236.239C784.958 279.11 682.838 463.902 549.638 593.995C425.318 716.697 290.638 780.265 249.198 737.394C206.278 694.522 265.478 573.298 397.198 441.727C528.918 310.155 700.598 194.845 743.518 236.239Z" fill="#A0B4C7"/>-->
<!--<path opacity="0.7778" d="M733.159 246.587C774.599 287.98 675.439 465.38 545.199 592.517C423.839 712.262 292.119 775.83 250.679 734.437C209.239 693.044 268.439 573.299 397.199 444.684C525.959 314.59 691.719 205.193 733.159 246.587Z" fill="#9EB2C5"/>-->
<!--<path opacity="0.8" d="M722.8 255.457C762.76 295.372 668.04 465.38 542.24 589.56C422.36 707.827 293.599 769.917 255.119 730.002C215.159 690.087 272.879 571.82 398.679 446.162C523 320.503 682.84 215.542 722.8 255.457Z" fill="#9CB0C4"/>-->
<!--<path opacity="0.8222" d="M712.439 264.327C750.919 302.763 660.639 465.38 537.799 586.603C420.879 701.913 295.079 764.003 256.599 725.567C218.119 687.13 275.839 570.342 398.679 447.64C520.039 324.938 673.959 225.89 712.439 264.327Z" fill="#9AAEC2"/>-->
<!--<path opacity="0.8444" d="M702.08 273.197C739.08 310.155 653.24 465.38 533.36 583.647C419.4 697.479 296.56 758.09 258.08 721.132C221.08 684.173 278.8 568.863 397.2 449.118C517.08 330.852 665.08 236.238 702.08 273.197Z" fill="#98ACC1"/>-->
<!--<path opacity="0.8667" d="M691.721 282.067C727.241 317.547 645.841 465.38 528.921 580.69C416.441 691.565 296.561 752.177 261.041 715.218C225.521 679.738 281.761 565.907 398.681 449.118C515.601 335.287 656.201 246.587 691.721 282.067Z" fill="#96AABF"/>-->
<!--<path opacity="0.8889" d="M681.358 292.415C716.878 326.417 638.438 466.858 525.958 579.212C416.438 688.608 299.518 747.742 263.998 712.262C228.478 676.782 286.198 565.907 398.678 453.553C512.638 339.722 647.318 256.935 681.358 292.415Z" fill="#94A8BD"/>-->
<!--<path opacity="0.9111" d="M670.999 301.285C705.039 335.287 631.039 466.858 521.519 576.255C414.959 682.695 299.519 741.829 266.959 707.827C232.919 673.825 290.639 564.428 400.159 455.032C509.679 345.635 638.439 267.283 670.999 301.285Z" fill="#92A6BC"/>-->
<!--<path opacity="0.9333" d="M660.639 310.155C693.199 342.679 623.639 466.858 517.079 573.298C411.999 678.26 300.999 735.915 268.439 703.392C235.879 670.868 292.119 562.95 400.159 456.51C506.719 350.07 628.079 277.632 660.639 310.155Z" fill="#90A5BA"/>-->
<!--<path opacity="0.9556" d="M650.281 319.025C681.361 350.07 616.241 466.858 512.641 570.342C410.521 672.347 302.481 730.002 271.401 698.957C240.321 667.912 296.56 561.472 400.16 457.988C505.24 354.505 619.201 287.98 650.281 319.025Z" fill="#8EA3B8"/>-->
<!--<path opacity="0.9778" d="M639.921 327.895C669.521 357.462 610.321 466.858 508.201 567.385C407.561 667.912 302.481 724.088 272.881 694.522C243.281 664.955 299.521 559.993 400.161 459.467C502.281 360.418 610.321 298.328 639.921 327.895Z" fill="#8CA1B7"/>-->
<!--<path d="M629.559 338.243C657.679 366.332 602.919 469.815 505.239 567.385C407.559 664.955 305.439 721.132 275.839 691.565C247.719 663.477 302.479 559.993 400.159 463.902C499.319 364.853 601.439 308.677 629.559 338.243Z" fill="#8A9FB5"/>-->
</g>
<path d="M166.052 784.042C112.697 730.732 112.697 644.617 166.052 593.357L1274.19 -513.841C1327.54 -567.151 1413.73 -567.151 1465.03 -513.841C1518.39 -460.532 1518.39 -374.416 1465.03 -323.157L356.897 784.042C305.594 837.351 219.406 837.351 166.052 784.042Z" fill="url(#paint4_linear)"/>
<g style="mix-blend-mode:multiply">
<path opacity="0.0222222" d="M1564.92 -208.74C1630.04 -143.693 1437.64 191.888 1254.12 370.767C1095.76 524.513 916.676 591.038 851.556 527.47C786.436 462.423 838.236 320.503 1020.28 138.668C1202.32 -44.6449 1501.28 -272.308 1564.92 -208.74Z" fill="#E4F1FD"/>
<path opacity="0.0444444" d="M1557.52 -201.348C1621.16 -137.78 1433.2 191.889 1251.16 369.289C1094.28 521.557 916.677 586.604 853.037 523.035C789.397 459.467 839.717 319.025 1020.28 138.668C1200.84 -40.2099 1493.88 -264.917 1557.52 -201.348Z" fill="#E2EFFC"/>
<path opacity="0.0666667" d="M1550.12 -193.957C1612.28 -131.867 1428.76 191.888 1248.2 367.81C1092.8 517.122 918.158 582.168 855.998 520.078C793.838 457.988 844.158 317.547 1021.76 140.147C1197.88 -37.2534 1486.48 -257.525 1550.12 -193.957Z" fill="#E0EDFA"/>
<path opacity="0.0888889" d="M1541.24 -186.565C1603.4 -124.475 1421.36 193.367 1245.24 366.331C1092.8 514.165 919.638 577.733 857.478 517.121C795.318 455.031 847.118 317.547 1021.76 143.103C1196.4 -32.8184 1479.08 -248.655 1541.24 -186.565Z" fill="#DEECF8"/>
<path opacity="0.1111" d="M1533.84 -180.652C1594.52 -120.04 1416.92 191.888 1242.28 361.897C1091.32 509.73 919.638 573.298 860.438 512.687C799.758 452.075 850.078 314.59 1023.24 143.103C1194.92 -28.3833 1473.16 -241.263 1533.84 -180.652Z" fill="#DCEAF7"/>
<path opacity="0.1333" d="M1524.96 -173.26C1584.16 -114.127 1411 193.367 1237.84 360.418C1088.36 505.295 921.117 568.863 860.437 509.73C801.237 450.597 851.557 314.59 1021.76 144.582C1191.96 -25.4266 1465.76 -232.393 1524.96 -173.26Z" fill="#DAE8F5"/>
<path opacity="0.1556" d="M1517.56 -165.868C1576.76 -106.735 1405.08 193.367 1234.88 358.94C1088.36 502.339 921.119 565.907 863.399 506.773C804.199 447.64 854.519 314.59 1021.76 146.06C1190.48 -20.9916 1458.36 -225.002 1517.56 -165.868Z" fill="#D8E6F3"/>
<path opacity="0.1778" d="M1510.16 -158.477C1567.88 -100.822 1400.64 194.845 1233.4 357.462C1088.36 499.382 924.077 561.472 866.357 503.817C808.637 446.162 858.957 313.112 1023.24 149.017C1189 -16.5565 1450.96 -216.132 1510.16 -158.477Z" fill="#D6E4F2"/>
<path opacity="0.2" d="M1501.28 -151.085C1557.52 -94.9083 1393.24 194.845 1228.96 355.983C1085.4 494.947 924.077 558.515 867.837 500.86C810.117 443.205 860.437 311.633 1023.24 149.017C1186.04 -13.5999 1445.04 -208.74 1501.28 -151.085Z" fill="#D4E2F0"/>
<path opacity="0.2222" d="M1493.88 -143.693C1550.12 -87.5166 1388.8 194.845 1226 353.027C1083.92 490.512 925.557 552.602 869.317 496.425C813.077 440.248 863.397 311.633 1023.24 150.495C1184.56 -9.16493 1437.64 -199.87 1493.88 -143.693Z" fill="#D2E0EF"/>
</g>
<path d="M712.439 215.542L715.399 217.02L1018.8 -86.0384L1015.84 -87.5167L712.439 215.542Z" fill="url(#paint5_linear)"/>
<path d="M450.479 1027.15L453.439 1028.63L756.839 725.567L753.879 724.089L450.479 1027.15Z" fill="url(#paint6_linear)"/>
<path d="M93.7982 611.735L96.7582 614.692L275.838 434.335L274.358 432.856L93.7982 611.735Z" fill="url(#paint7_linear)"/>
<path d="M114.52 150.495L117.48 151.973L191.48 78.0566L188.52 76.5783L114.52 150.495Z" fill="url(#paint8_linear)"/>
<path d="M594.039 627.997L596.999 629.475L705.039 520.078L703.559 518.6L594.039 627.997Z" fill="url(#paint9_linear)"/>
<path d="M428.28 1322.81C389.8 1284.38 389.8 1222.29 428.28 1185.33L1227.48 387.028C1265.96 348.592 1328.12 348.592 1365.12 387.028C1403.6 425.465 1403.6 487.555 1365.12 524.513L565.92 1322.81C528.92 1361.25 466.76 1361.25 428.28 1322.81Z" fill="url(#paint10_linear)"/>
<path d="M839.924 457.761C801.444 419.324 801.444 357.234 839.924 320.276L1639.12 -478.024C1677.6 -516.461 1739.76 -516.461 1776.76 -478.024C1815.24 -439.587 1815.24 -377.497 1776.76 -340.539L977.564 457.761C940.564 496.198 878.404 496.198 839.924 457.761Z" fill="url(#paint11_linear)"/>
<path d="M161.88 338.244C139.68 316.068 139.68 282.067 161.88 259.892L616.24 -193.957C638.44 -216.132 672.48 -216.132 694.68 -193.957C716.88 -171.782 716.88 -137.78 694.68 -115.605L240.32 338.244C218.12 358.94 182.6 358.94 161.88 338.244Z" fill="url(#paint12_linear)"/>
</g>
</g>
<defs>
<linearGradient id="paint0_linear" x1="-104.297" y1="-64.9645" x2="1474.83" y2="872.666" gradientUnits="userSpaceOnUse">
<stop stop-color="#B2E0AA"/>
<stop offset="0.00915417" stop-color="#AADBA8"/>
<stop offset="0.067127" stop-color="#7DBF9B"/>
<stop offset="0.1276" stop-color="#57A690"/>
<stop offset="0.1897" stop-color="#379288"/>
<stop offset="0.2541" stop-color="#1F8381"/>
<stop offset="0.3216" stop-color="#0E787C"/>
<stop offset="0.3945" stop-color="#037179"/>
<stop offset="0.4822" stop-color="#006F78"/>
<stop offset="0.5468" stop-color="#047179"/>
<stop offset="0.6124" stop-color="#10787C"/>
<stop offset="0.6786" stop-color="#258482"/>
<stop offset="0.7451" stop-color="#419489"/>
<stop offset="0.812" stop-color="#66AA93"/>
<stop offset="0.8791" stop-color="#93C49E"/>
<stop offset="0.9451" stop-color="#C8E2AC"/>
<stop offset="1" stop-color="#F9FEB9"/>
</linearGradient>
<linearGradient id="paint1_linear" x1="-102.047" y1="-64.5138" x2="1477.06" y2="873.102" gradientUnits="userSpaceOnUse">
<stop stop-color="#B2E0AA"/>
<stop offset="0.00915417" stop-color="#AADBA8"/>
<stop offset="0.067127" stop-color="#7DBF9B"/>
<stop offset="0.1276" stop-color="#57A690"/>
<stop offset="0.1897" stop-color="#379288"/>
<stop offset="0.2541" stop-color="#1F8381"/>
<stop offset="0.3216" stop-color="#0E787C"/>
<stop offset="0.3945" stop-color="#037179"/>
<stop offset="0.4822" stop-color="#006F78"/>
<stop offset="0.5468" stop-color="#047179"/>
<stop offset="0.6124" stop-color="#10787C"/>
<stop offset="0.6786" stop-color="#258482"/>
<stop offset="0.7451" stop-color="#419489"/>
<stop offset="0.812" stop-color="#66AA93"/>
<stop offset="0.8791" stop-color="#93C49E"/>
<stop offset="0.9451" stop-color="#C8E2AC"/>
<stop offset="1" stop-color="#F9FEB9"/>
</linearGradient>
<linearGradient id="paint2_linear" x1="-102.058" y1="-64.5212" x2="1477.07" y2="873.109" gradientUnits="userSpaceOnUse">
<stop stop-color="#B2E0AA"/>
<stop offset="0.00915417" stop-color="#AADBA8"/>
<stop offset="0.067127" stop-color="#7DBF9B"/>
<stop offset="0.1276" stop-color="#57A690"/>
<stop offset="0.1897" stop-color="#379288"/>
<stop offset="0.2541" stop-color="#1F8381"/>
<stop offset="0.3216" stop-color="#0E787C"/>
<stop offset="0.3945" stop-color="#037179"/>
<stop offset="0.4822" stop-color="#006F78"/>
<stop offset="0.5468" stop-color="#047179"/>
<stop offset="0.6124" stop-color="#10787C"/>
<stop offset="0.6786" stop-color="#258482"/>
<stop offset="0.7451" stop-color="#419489"/>
<stop offset="0.812" stop-color="#66AA93"/>
<stop offset="0.8791" stop-color="#93C49E"/>
<stop offset="0.9451" stop-color="#C8E2AC"/>
<stop offset="1" stop-color="#F9FEB9"/>
</linearGradient>
<linearGradient id="paint3_linear" x1="-102.058" y1="-64.5212" x2="1477.07" y2="873.109" gradientUnits="userSpaceOnUse">
<stop stop-color="#B2E0AA"/>
<stop offset="0.00915417" stop-color="#AADBA8"/>
<stop offset="0.067127" stop-color="#7DBF9B"/>
<stop offset="0.1276" stop-color="#57A690"/>
<stop offset="0.1897" stop-color="#379288"/>
<stop offset="0.2541" stop-color="#1F8381"/>
<stop offset="0.3216" stop-color="#0E787C"/>
<stop offset="0.3945" stop-color="#037179"/>
<stop offset="0.4822" stop-color="#006F78"/>
<stop offset="0.5468" stop-color="#047179"/>
<stop offset="0.6124" stop-color="#10787C"/>
<stop offset="0.6786" stop-color="#258482"/>
<stop offset="0.7451" stop-color="#419489"/>
<stop offset="0.812" stop-color="#66AA93"/>
<stop offset="0.8791" stop-color="#93C49E"/>
<stop offset="0.9451" stop-color="#C8E2AC"/>
<stop offset="1" stop-color="#F9FEB9"/>
</linearGradient>
<linearGradient id="paint4_linear" x1="493.845" y1="157.04" x2="1400.3" y2="-419.588" gradientUnits="userSpaceOnUse">
<stop stop-color="#006F78"/>
<stop offset="0.1247" stop-color="#047179"/>
<stop offset="0.2514" stop-color="#10787C"/>
<stop offset="0.3792" stop-color="#258482"/>
<stop offset="0.5078" stop-color="#419489"/>
<stop offset="0.6369" stop-color="#66AA93"/>
<stop offset="0.7665" stop-color="#93C49E"/>
<stop offset="0.894" stop-color="#C8E2AC"/>
<stop offset="1" stop-color="#F9FEB9"/>
</linearGradient>
<linearGradient id="paint5_linear" x1="712.439" y1="64.5136" x2="1018.18" y2="64.5136" gradientUnits="userSpaceOnUse">
<stop stop-color="#F6C701"/>
<stop offset="0.4901" stop-color="#40CC96"/>
<stop offset="0.6938" stop-color="#32DBA6"/>
<stop offset="1" stop-color="#16F7C6"/>
</linearGradient>
<linearGradient id="paint6_linear" x1="450.997" y1="876.608" x2="756.739" y2="876.608" gradientUnits="userSpaceOnUse">
<stop stop-color="#F6C701"/>
<stop offset="0.4901" stop-color="#40CC96"/>
<stop offset="0.6938" stop-color="#32DBA6"/>
<stop offset="1" stop-color="#16F7C6"/>
</linearGradient>
<linearGradient id="paint7_linear" x1="93.9595" y1="523.505" x2="276.387" y2="523.505" gradientUnits="userSpaceOnUse">
<stop stop-color="#F6C701"/>
<stop offset="0.4901" stop-color="#40CC96"/>
<stop offset="0.6938" stop-color="#32DBA6"/>
<stop offset="1" stop-color="#16F7C6"/>
</linearGradient>
<linearGradient id="paint8_linear" x1="114.687" y1="114.149" x2="191.377" y2="114.149" gradientUnits="userSpaceOnUse">
<stop stop-color="#F6C701"/>
<stop offset="0.4901" stop-color="#40CC96"/>
<stop offset="0.6938" stop-color="#32DBA6"/>
<stop offset="1" stop-color="#16F7C6"/>
</linearGradient>
<linearGradient id="paint9_linear" x1="593.981" y1="573.94" x2="705.516" y2="573.94" gradientUnits="userSpaceOnUse">
<stop stop-color="#F6C701"/>
<stop offset="0.4901" stop-color="#40CC96"/>
<stop offset="0.6938" stop-color="#32DBA6"/>
<stop offset="1" stop-color="#16F7C6"/>
</linearGradient>
<linearGradient id="paint10_linear" x1="787.879" y1="964.139" x2="1376.66" y2="260.941" gradientUnits="userSpaceOnUse">
<stop stop-color="#006F78"/>
<stop offset="0.1247" stop-color="#047179"/>
<stop offset="0.2514" stop-color="#10787C"/>
<stop offset="0.3792" stop-color="#258482"/>
<stop offset="0.5078" stop-color="#419489"/>
<stop offset="0.6369" stop-color="#66AA93"/>
<stop offset="0.7665" stop-color="#93C49E"/>
<stop offset="0.894" stop-color="#C8E2AC"/>
<stop offset="1" stop-color="#F9FEB9"/>
</linearGradient>
<linearGradient id="paint11_linear" x1="1199.52" y1="99.0862" x2="1788.3" y2="-604.111" gradientUnits="userSpaceOnUse">
<stop stop-color="#006F78"/>
<stop offset="0.1247" stop-color="#047179"/>
<stop offset="0.2514" stop-color="#10787C"/>
<stop offset="0.3792" stop-color="#258482"/>
<stop offset="0.5078" stop-color="#419489"/>
<stop offset="0.6369" stop-color="#66AA93"/>
<stop offset="0.7665" stop-color="#93C49E"/>
<stop offset="0.894" stop-color="#C8E2AC"/>
<stop offset="1" stop-color="#F9FEB9"/>
</linearGradient>
<linearGradient id="paint12_linear" x1="738.362" y1="-186.074" x2="2.73594" y2="426.406" gradientUnits="userSpaceOnUse">
<stop stop-color="#F9FEB9"/>
<stop offset="0.0385278" stop-color="#C8E2AC"/>
<stop offset="0.0849033" stop-color="#93C49E"/>
<stop offset="0.132" stop-color="#66AA93"/>
<stop offset="0.179" stop-color="#419489"/>
<stop offset="0.2257" stop-color="#258482"/>
<stop offset="0.2722" stop-color="#10787C"/>
<stop offset="0.3183" stop-color="#047179"/>
<stop offset="0.3636" stop-color="#006F78"/>
<stop offset="0.4794" stop-color="#037179"/>
<stop offset="0.5756" stop-color="#0E787C"/>
<stop offset="0.6647" stop-color="#1F8381"/>
<stop offset="0.7497" stop-color="#379288"/>
<stop offset="0.8317" stop-color="#57A690"/>
<stop offset="0.9114" stop-color="#7DBF9B"/>
<stop offset="0.9879" stop-color="#AADBA8"/>
<stop offset="1" stop-color="#B2E0AA"/>
</linearGradient>
</defs>
</svg>
